<svg xmlns="http://www.w3.org/2000/svg" xmlns:xlink="http://www.w3.org/1999/xlink"><symbol id="icon-back"><path d="M11.519 13.934c.214.217.214.566 0 .783s-.561.217-.775 0L4.48 8.391a.558.558 0 010-.783l6.264-6.326c.214-.217.561-.217.775 0s.214.566 0 .783L5.807 7.999l5.712 5.934z"/></symbol><symbol id="icon-basket" viewBox="5.7 0 105.5 126.1" preserveAspectRatio="xMinYMax meet"><path d="M99.8 28.4c0-1.2-.9-2-2.1-2h-15v8.2c0 1.5-1.2 2.6-2.6 2.9-1.5.3-2.9-.9-3.2-2.3v-8.8H40.1v8.2c0 1.5-1.2 2.9-2.6 2.9-1.5 0-2.9-.9-3.2-2.3v-8.8h-15c-1.2 0-2 .9-2 2l-9 95.6c0 1.2.9 2.1 2.1 2.1h96.3c1.2 0 2.1-.9 2.1-2.1l-9-95.6z"/><path d="M59.1 5.9h-2.9c-2 0-4.4.6-6.4 1.5-3.2 1.5-5.9 4.1-7.6 7.3-.9 1.8-1.5 3.5-1.8 5.6 0 .9-.3 1.5-.3 2.3v3.2c0 1.5-1.2 2.9-2.6 2.9-1.5 0-2.9-.9-3.2-2.3v-4.1c0-3.2.9-6.4 2-9.4 1.2-2.3 2.6-4.7 4.7-6.4 3.2-2.9 6.7-5 11.1-5.9C53.5.3 55 0 56.7 0h4.4C64 0 66.7.6 69 1.8c2.6 1.2 5 2.6 6.7 4.4 3.2 3.2 5.3 6.7 6.4 11.1.3 1.5.6 3.2.6 4.7v3.2c0 1.5-1.2 2.6-2.6 2.9s-2.9-.9-3.2-2.3v-4.4c0-2.3-.6-4.4-1.8-6.4-1.5-3.2-4.1-5.9-7.3-7.3-1.8-.9-3.5-1.8-5.9-1.8h-2.8z"/><text x="58.5" y="77" dy=".35em" text-anchor="middle" class="_1INsc" data-hook="items-count">0</text></symbol><symbol id="icon-fb" viewBox="0 0 512 512"><path d="M437 0H75C33.648 0 0 33.648 0 75v362c0 41.352 33.648 75 75 75h151V331h-60v-90h60v-61c0-49.629 40.371-90 90-90h91v90h-91v61h91l-15 90h-76v181h121c41.352 0 75-33.648 75-75V75c0-41.352-33.648-75-75-75zm0 0"/></symbol><symbol id="icon-forward"><path d="M4.48 13.934c-.214.217-.214.566 0 .783s.561.217.775 0l6.264-6.326a.558.558 0 000-.783L5.255 1.282c-.214-.217-.561-.217-.775 0s-.214.566 0 .783l5.712 5.934-5.712 5.934z"/></symbol><symbol id="icon-insta" viewBox="0 0 512 512"><path d="M437 0H75C33.648 0 0 33.648 0 75v362c0 41.352 33.648 75 75 75h362c41.352 0 75-33.648 75-75V75c0-41.352-33.648-75-75-75zM257 390c-74.441 0-135-60.559-135-135s60.559-135 135-135 135 60.559 135 135-60.559 135-135 135zm150-240c-24.813 0-45-20.188-45-45s20.188-45 45-45 45 20.188 45 45-20.188 45-45 45zm0 0"/><path d="M407 90c-8.277 0-15 6.723-15 15s6.723 15 15 15 15-6.723 15-15-6.723-15-15-15zm-150 60c-57.89 0-105 47.11-105 105s47.11 105 105 105 105-47.11 105-105-47.11-105-105-105zm0 0"/></symbol><symbol id="icon-login" viewBox="0 0 50 50"><path d="M25 48.077c-5.924 0-11.31-2.252-15.396-5.921 2.254-5.362 7.492-8.267 15.373-8.267 7.889 0 13.139 3.044 15.408 8.418-4.084 3.659-9.471 5.77-15.385 5.77m.278-35.3c4.927 0 8.611 3.812 8.611 8.878 0 5.21-3.875 9.456-8.611 9.456s-8.611-4.246-8.611-9.456c0-5.066 3.684-8.878 8.611-8.878M25 0C11.193 0 0 11.193 0 25c0 .915.056 1.816.152 2.705.032.295.091.581.133.873.085.589.173 1.176.298 1.751.073.338.169.665.256.997.135.515.273 1.027.439 1.529.114.342.243.675.37 1.01.18.476.369.945.577 1.406.149.331.308.657.472.98.225.446.463.883.714 1.313.182.312.365.619.56.922.272.423.56.832.856 1.237.207.284.41.568.629.841.325.408.671.796 1.02 1.182.22.244.432.494.662.728.405.415.833.801 1.265 1.186.173.154.329.325.507.475l.004-.011A24.886 24.886 0 0025 50a24.881 24.881 0 0016.069-5.861.126.126 0 01.003.01c.172-.144.324-.309.49-.458.442-.392.88-.787 1.293-1.209.228-.232.437-.479.655-.72.352-.389.701-.78 1.028-1.191.218-.272.421-.556.627-.838.297-.405.587-.816.859-1.24a26.104 26.104 0 001.748-3.216c.208-.461.398-.93.579-1.406.127-.336.256-.669.369-1.012.167-.502.305-1.014.44-1.53.087-.332.183-.659.256-.996.126-.576.214-1.164.299-1.754.042-.292.101-.577.133-.872.095-.89.152-1.791.152-2.707C50 11.193 38.807 0 25 0"/></symbol></svg>