<svg version="1.0" xmlns="http://www.w3.org/2000/svg" width="933.333" height="933.333" viewBox="0 0 700 700"><path d="M563.5 2.3c-2.9 1.4-6.7 4.4-8.8 6.8-8.3 10-39.7 55.2-40.7 58.7-.6 2.3-1 25.1-1 62.6v59l-9.7-9.7c-11.9-11.8-19.1-17.3-30.3-23.1-32.3-16.6-67.2-15.6-111.7 3.5-13.1 5.5-20.1 7.2-30.1 7.1-9.5 0-15.4-1.5-28.2-7-27.8-11.8-47-16-69.5-14.9-23 1.1-43.3 8.8-61 23.1-11.7 9.5-34.6 34.6-50.6 55.6-3.6 4.7-12.4 17-19.7 27.5C95 261.9 86 274.3 82.4 279c-10 12.6-31.1 33.3-45.9 44.9-7.1 5.6-14.2 11.2-15.7 12.4l-2.7 2.2 60.9 73c33.5 40.1 65.7 77.9 71.5 84 36.5 37.9 85.4 61.2 146.5 69.9 17.2 2.4 54.7 2.5 69 .1 1.4-.2 4.8-.7 7.5-1 13.4-1.6 36.8-7.5 53.6-13.5 8.7-3.1 23.9-10 36.9-16.7.3-.2.6 27.9.7 62.4 0 62 .1 62.9 2.2 69.3 5.3 15.6 15.9 26.2 31.2 31.4l7.4 2.5h67c72.4.1 71.9.1 83-5.4 6.4-3.1 16.3-12.4 19.8-18.5 1.4-2.5 3.5-7.6 4.6-11.3 2-6.6 2.1-8.6 2.1-101.3 0-85.7-.1-94.9-1.6-98-2.3-4.9-6.4-6.7-15.4-6.8h-7.5V295.5l-2.2-4.1c-4-7.5-10-11.8-19.3-13.8l-2.5-.5V173.4c.1-101.7.1-103.8-1.9-107.8-1.1-2.3-2.4-4.3-2.8-4.4-.4-.2-.8-.8-.8-1.3 0-.9-18.7-27.4-32.1-45.5C588.2 3.9 583.6 1 574.2.3c-4.5-.3-6.8.1-10.7 2z"/></svg>